# Blender v2.79 (sub 0) OBJ File: 'gPoohDumFull.dae'
# www.blender.org
mtllib scarecrow.mtl
o gPoohDumFull
v -2.280518 5.827393 -0.411622
v -2.230225 6.033447 -0.113770
v -0.650879 5.043457 -0.150635
v -0.590820 5.288574 0.190918
v -2.230225 6.033447 -0.113770
v -2.191406 6.160645 -0.363526
v -0.590820 5.288574 0.190918
v -0.516602 5.530273 -0.030762
v 2.372559 5.879395 -0.480469
v 2.363525 6.017822 -0.142334
v 0.735840 5.048096 -0.183350
v 0.722900 5.215576 0.206787
v 2.363525 6.017822 -0.142334
v 2.292480 6.194580 -0.352540
v 0.722900 5.215576 0.206787
v 0.621338 5.498047 0.052002
v -0.715820 3.701172 -0.370362
v -1.409668 1.458008 -0.276123
v -0.682129 3.687256 -0.005371
v -1.363037 1.438965 0.147217
v -0.682129 3.687256 -0.005371
v -1.363037 1.438965 0.147217
v -0.440186 3.588135 -0.150147
v -1.031982 1.296631 0.088623
v 0.016113 6.276123 0.205322
v -0.189209 6.276123 -0.205323
v 0.016113 -0.015381 0.205322
v -0.189209 -0.015381 -0.205322
v 0.221436 6.276123 -0.205323
v 0.016113 6.276123 0.205322
v 0.221436 -0.015381 -0.205322
v 0.016113 -0.015381 0.205322
v 0.731445 3.701172 -0.370362
v 0.697754 3.687256 -0.005371
v 1.425293 1.458008 -0.276123
v 1.378906 1.438965 0.147217
v 0.697754 3.687256 -0.005371
v 0.455811 3.588135 -0.150147
v 1.378906 1.438965 0.147217
v 1.047852 1.296631 0.088623
v -0.873779 5.906982 -0.154786
v 0.015869 5.906982 -0.154786
v 0.015869 5.757812 -0.958741
v 0.905518 5.906982 -0.154786
v -0.873779 5.906982 -0.154786
v 0.015869 5.532715 0.787353
v 0.015869 5.906982 -0.154786
v 0.905518 5.906982 -0.154786
v 0.015869 3.052979 -0.836914
v -0.925781 2.699707 -0.239014
v 0.015869 4.088623 -0.974121
v -1.519531 4.088623 -0.239014
v -0.925781 2.699707 -0.239014
v 0.015869 3.091797 1.116455
v -1.519531 4.088623 -0.239014
v 0.015869 4.139893 1.475097
v 0.015869 5.757812 -0.958741
v 0.015869 4.088623 -0.974121
v -0.873779 5.906982 -0.154786
v -1.519531 4.088623 -0.239014
v -0.873779 5.906982 -0.154786
v -1.519531 4.088623 -0.239014
v 0.015869 5.532715 0.787353
v 0.015869 4.139893 1.475097
v 0.015869 3.052979 -0.836914
v 0.015869 4.088623 -0.974121
v 0.957520 2.699707 -0.239014
v 1.551514 4.088623 -0.239014
v 0.957520 2.699707 -0.239014
v 1.551514 4.088623 -0.239014
v 0.015869 3.091797 1.116455
v 0.015869 4.139893 1.475097
v 0.015869 5.757812 -0.958741
v 0.905518 5.906982 -0.154786
v 0.015869 4.088623 -0.974121
v 1.551514 4.088623 -0.239014
v 0.905518 5.906982 -0.154786
v 0.015869 5.532715 0.787353
v 1.551514 4.088623 -0.239014
v 0.015869 4.139893 1.475097
v 0.015869 3.091797 1.116455
v -0.925781 2.699707 -0.239014
v 0.015869 2.543457 0.175293
v 0.015869 2.543457 0.175293
v -0.925781 2.699707 -0.239014
v 0.015869 3.052979 -0.836914
v 0.015869 3.091797 1.116455
v 0.015869 2.543457 0.175293
v 0.957520 2.699707 -0.239014
v 0.015869 2.543457 0.175293
v 0.015869 3.052979 -0.836914
v 0.957520 2.699707 -0.239014
v 1.125732 8.388916 0.269531
v 1.520752 6.946533 -0.010743
v 0.219482 8.405518 -1.116944
v 0.036377 7.095215 -1.540040
v -0.651855 8.566162 0.269531
v 0.219482 8.405518 -1.116944
v -1.423340 7.403076 -0.010743
v 0.036377 7.095215 -1.540040
v -0.651855 8.566162 0.269531
v -0.554443 7.376465 1.254638
v 1.125732 8.388916 0.269531
v 0.684570 7.184570 1.254638
v 1.125732 8.388916 0.269531
v 0.219482 8.405518 -1.116944
v 0.287598 8.687744 -0.119630
v -0.651855 8.566162 0.269531
v -0.096924 6.111084 -0.594483
v 0.036377 7.095215 -1.540040
v 0.652344 6.034668 0.065673
v 1.520752 6.946533 -0.010743
v -0.097656 6.245850 0.969726
v 0.652344 6.034668 0.065673
v 0.684570 7.184570 1.254638
v 1.520752 6.946533 -0.010743
v -0.097656 6.245850 0.969726
v -0.554443 7.376465 1.254638
v -0.863770 6.327393 0.065673
v -1.423340 7.403076 -0.010743
v -0.096924 6.111084 -0.594483
v -0.863770 6.327393 0.065673
v 0.036377 7.095215 -1.540040
v -1.423340 7.403076 -0.010743
v 0.684570 7.184570 1.254638
v 1.520752 6.946533 -0.010743
v 1.125732 8.388916 0.269531
v -0.554443 7.376465 1.254638
v -0.651855 8.566162 0.269531
v -1.423340 7.403076 -0.010743
v -0.651855 8.566162 0.269531
v 1.125732 8.388916 0.269531
v 0.287598 8.687744 -0.119630
v 0.684570 7.184570 1.254638
v -0.554443 7.376465 1.254638
v -0.097656 6.245850 0.969726
vt 0.437500 0.319824
vt 0.543945 0.341309
vt 0.499023 0.142090
vt 0.548828 0.249023
vt 0.437500 0.319824
vt 0.543945 0.341309
vt 0.499023 0.142090
vt 0.548828 0.249023
vt 0.437500 0.319824
vt 0.499023 0.142090
vt 0.543945 0.341309
vt 0.548828 0.249023
vt 0.298340 0.243652
vt 0.253906 0.246094
vt 0.300781 0.023438
vt 0.256836 0.025879
vt 0.342285 0.246094
vt 0.298340 0.243652
vt 0.344727 0.025879
vt 0.300781 0.023438
vt 0.437500 0.319824
vt 0.543945 0.341309
vt 0.499023 0.142090
vt 0.548828 0.249023
vt 0.703613 0.821777
vt 0.560547 0.975586
vt 0.880371 0.825195
vt 0.703613 0.821777
vt 0.703613 0.821777
vt 0.490234 0.801270
vt 0.560547 0.975586
vt 0.703613 0.821777
vt 0.679688 0.399902
vt 0.743652 0.600586
vt 0.926758 0.601562
vt 0.470703 0.445801
vt 0.485352 0.604492
vt 0.743652 0.600586
vt 0.926758 0.601562
vt 0.743652 0.600586
vt 0.679688 0.399902
vt 0.743652 0.600586
vt 0.485352 0.604492
vt 0.470703 0.445801
vt 0.470703 0.445801
vt 0.679688 0.399902
vt 0.654297 0.301758
vt 0.654297 0.301758
vt 0.679688 0.399902
vt 0.863770 0.434570
vt 0.470703 0.445801
vt 0.654297 0.301758
vt 0.679688 0.399902
vt 0.654297 0.301758
vt 0.863770 0.434570
vt 0.679688 0.399902
vt 0.347168 0.817383
vt 0.171875 0.751465
vt 0.345215 0.565918
vt 0.169434 0.606934
vt 0.706055 0.519043
vt 0.562988 0.547363
vt 0.621582 0.438965
vt 0.171875 0.751465
vt 0.174316 0.902344
vt 0.024902 0.868652
vt 0.772461 0.427734
vt 0.853027 0.514648
vt 0.706055 0.519043
vt 0.171875 0.751465
vt 0.347168 0.817383
vt 0.174316 0.902344
vt 0.169434 0.606934
vt 0.171875 0.751465
vt 0.020996 0.665527
vt 0.543945 0.341309
vt 0.493652 0.338867
vt 0.548828 0.249023
vt 0.499023 0.142090
vt 0.543945 0.341309
vt 0.493652 0.338867
vt 0.548828 0.249023
vt 0.499023 0.142090
vt 0.543945 0.341309
vt 0.548828 0.249023
vt 0.493652 0.338867
vt 0.499023 0.142090
vt 0.543945 0.341309
vt 0.493652 0.338867
vt 0.548828 0.249023
vt 0.499023 0.142090
vt 0.863770 0.434570
vt 0.679688 0.399902
vt 0.880371 0.825195
vt 0.926758 0.601562
vt 0.703613 0.821777
vt 0.743652 0.600586
vt 0.703613 0.821777
vt 0.743652 0.600586
vt 0.490234 0.801270
vt 0.485352 0.604492
vt 0.863770 0.434570
vt 0.679688 0.399902
vt 0.880371 0.825195
vt 0.703613 0.821777
vt 0.926758 0.601562
vt 0.743652 0.600586
vt 0.703613 0.821777
vt 0.490234 0.801270
vt 0.743652 0.600586
vt 0.485352 0.604492
vt 0.605957 0.666992
vt 0.562988 0.547363
vt 0.720215 0.639648
vt 0.706055 0.519043
vt 0.836426 0.628418
vt 0.720215 0.639648
vt 0.853027 0.514648
vt 0.706055 0.519043
vt 0.605957 0.666992
vt 0.720215 0.639648
vt 0.721680 0.670898
vt 0.836426 0.628418
vt 0.695312 0.423340
vt 0.020996 0.665527
vt 0.017090 0.474121
vt 0.169434 0.606934
vt 0.166504 0.475098
vt 0.020996 0.665527
vt 0.695312 0.423340
vt 0.169434 0.606934
vt 0.166504 0.475098
vt 0.345215 0.565918
vt 0.347168 0.817383
vt 0.345215 0.565918
vt 0.363770 0.658691
vn 0.4300 0.7069 -0.5616
vn 0.4245 0.6986 -0.5760
vn 0.4741 -0.8103 0.3444
vn 0.4705 -0.8051 0.3612
vn -0.9495 0.2978 0.0990
vn -0.9482 0.2951 0.1177
vn -0.8944 0.0000 0.4472
vn 0.8944 0.0000 0.4472
vn 0.9495 0.2978 0.0990
vn 0.9482 0.2952 0.1172
vn 0.0000 0.9832 -0.1824
vn 0.0000 0.9294 0.3692
vn -0.4247 -0.1815 -0.8870
vn -0.7226 -0.2238 0.6540
vn 0.4246 -0.1816 -0.8870
vn 0.7226 -0.2238 0.6540
vn -0.3428 -0.8117 0.4729
vn 0.0496 -0.8921 -0.4491
vn 0.3428 -0.8117 0.4729
vn -0.0496 -0.8921 -0.4491
vn 0.0638 0.6396 0.7661
vn 0.0944 0.6094 0.7873
vn 0.5560 -0.5794 -0.5960
vn -0.7713 -0.3642 0.5220
vn -0.7005 -0.4061 -0.5869
vn -0.7600 0.3765 0.5298
vn -0.0402 -0.2594 0.9649
vn -0.2913 -0.8333 -0.4697
vn -0.2692 -0.8177 -0.5088
vn -0.1196 -0.6796 -0.7237
vn -0.0983 -0.6561 -0.7482
vn -0.2063 0.7134 0.6696
vn -0.1810 0.6904 0.7004
vn -0.0121 0.5106 0.8597
vn 0.0104 0.4834 0.8753
vn 0.4848 -0.0877 0.8702
vn 0.2182 0.0412 0.9750
vn 0.4600 -0.0751 0.8847
vn 0.1955 0.0515 0.9793
vn -0.4848 -0.0878 0.8702
vn -0.4600 -0.0751 0.8847
vn -0.2182 0.0411 0.9750
vn -0.1955 0.0515 0.9793
vn -0.5018 -0.1136 -0.8574
vn -0.4520 -0.1581 -0.8779
vn -0.4577 -0.1532 -0.8758
vn -0.7347 -0.3141 0.6012
vn -0.7278 -0.2557 0.6363
vn -0.7312 -0.2812 0.6214
vn -0.6698 0.0068 -0.7425
vn -0.5204 0.1259 -0.8445
vn -0.5560 0.0998 -0.8252
vn -0.4238 0.1915 -0.8853
vn -0.6697 0.2048 0.7138
vn -0.6941 0.2611 0.6709
vn -0.6952 0.2641 0.6685
vn -0.7126 0.3106 0.6290
vn 0.5018 -0.1136 -0.8574
vn 0.4576 -0.1533 -0.8758
vn 0.4519 -0.1582 -0.8779
vn 0.7347 -0.3142 0.6012
vn 0.7312 -0.2813 0.6215
vn 0.7277 -0.2557 0.6364
vn 0.6698 0.0068 -0.7425
vn 0.5560 0.0998 -0.8252
vn 0.5204 0.1259 -0.8446
vn 0.4237 0.1915 -0.8853
vn 0.6697 0.2048 0.7138
vn 0.6952 0.2641 0.6685
vn 0.6940 0.2612 0.6709
vn 0.7125 0.3106 0.6291
vn 0.7953 0.3181 -0.5160
vn 0.7686 0.2341 -0.5954
vn 0.7547 0.1991 -0.6251
vn 0.7181 0.1209 -0.6853
vn -0.6698 0.5614 -0.4860
vn -0.6682 0.4099 -0.6209
vn -0.6717 0.4588 -0.5816
vn -0.6545 0.3136 -0.6879
vn 0.4329 0.8592 -0.2727
vn 0.0919 0.9565 -0.2769
vn 0.1181 0.9533 -0.2778
vn -0.2258 0.9413 -0.2510
vn 0.4673 -0.6446 -0.6050
vn 0.5187 -0.6083 -0.6008
vn 0.5277 -0.6015 -0.5997
vn 0.5286 -0.6173 0.5827
vn 0.5904 -0.5881 0.5528
vn 0.5844 -0.5911 0.5559
vn 0.6371 -0.5626 0.5268
vn -0.7083 -0.4277 0.5616
vn -0.7401 -0.3969 0.5428
vn -0.7444 -0.3926 0.5401
vn -0.6458 -0.4817 -0.5924
vn -0.6829 -0.4317 -0.5893
vn -0.6761 -0.4413 -0.5900
vn 0.8383 0.1266 0.5302
vn 0.0869 0.8717 0.4822
usemtl lambert3
s off
f 1/1/1 2/2/1 3/3/1
f 2/2/2 4/4/2 3/3/2
f 9/5/3 10/6/3 11/7/3
f 10/6/4 12/8/4 11/7/4
f 17/9/5 18/10/5 19/11/5
f 18/10/6 20/12/6 19/11/6
f 25/13/7 26/14/7 27/15/7
f 26/14/7 28/16/7 27/15/7
f 29/17/8 30/18/8 31/19/8
f 30/18/8 32/20/8 31/19/8
f 33/21/9 34/22/9 35/23/9
f 34/22/10 36/24/10 35/23/10
f 41/25/11 42/26/11 43/27/11
f 42/26/11 44/28/11 43/27/11
f 45/29/12 46/30/12 47/31/12
f 46/30/12 48/32/12 47/31/12
f 50/33/13 52/34/13 51/35/13
f 54/36/14 56/37/14 55/38/14
f 66/39/15 68/40/15 67/41/15
f 70/42/16 72/43/16 71/44/16
f 81/45/17 82/46/17 83/47/17
f 84/48/18 85/49/18 86/50/18
f 87/51/19 88/52/19 89/53/19
f 90/54/20 91/55/20 92/56/20
f 101/57/21 102/58/21 103/59/21
f 102/58/22 104/60/22 103/59/22
f 110/61/23 112/62/23 111/63/23
f 118/64/24 120/65/24 119/66/24
f 122/67/25 124/68/25 123/69/25
f 128/70/26 129/71/26 130/72/26
f 134/73/27 135/74/27 136/75/27
s 1
f 5/76/28 6/77/29 7/78/30
f 6/77/29 8/79/31 7/78/30
f 13/80/32 14/81/33 15/82/34
f 14/81/33 16/83/35 15/82/34
f 21/84/36 22/85/37 23/86/38
f 22/85/37 24/87/39 23/86/38
f 37/88/40 38/89/41 39/90/42
f 38/89/41 40/91/43 39/90/42
f 49/92/44 50/33/45 51/35/46
f 53/93/47 54/36/48 55/38/49
f 57/94/50 58/95/51 59/96/52
f 58/95/51 60/97/53 59/96/52
f 61/98/54 62/99/55 63/100/56
f 62/99/55 64/101/57 63/100/56
f 65/102/58 66/39/59 67/41/60
f 69/103/61 70/42/62 71/44/63
f 73/104/64 74/105/65 75/106/66
f 74/105/65 76/107/67 75/106/66
f 77/108/68 78/109/69 79/110/70
f 78/109/69 80/111/71 79/110/70
f 93/112/72 94/113/73 95/114/74
f 94/113/73 96/115/75 95/114/74
f 97/116/76 98/117/77 99/118/78
f 98/117/77 100/119/79 99/118/78
f 105/120/80 106/121/81 107/122/82
f 106/121/81 108/123/83 107/122/82
f 109/124/84 110/61/85 111/63/86
f 113/125/87 114/126/88 115/127/89
f 114/126/88 116/128/90 115/127/89
f 117/129/91 118/64/92 119/66/93
f 121/130/94 122/67/95 123/69/96
f 125/131/97 126/132/97 127/133/97
f 131/134/98 132/135/98 133/136/98
